<svg width="443" height="269" viewBox="0 0 443 269" fill="none" xmlns="http://www.w3.org/2000/svg">
<path d="M20 0C8.9543 0 0 8.95429 0 20V86.5556L26.9424 130.805C28.3785 133.163 28.3785 136.987 26.9424 139.346L0 183.595V248.372C0 259.418 8.95432 268.372 20 268.372H394C405.046 268.372 414 259.418 414 248.372V20C414 8.9543 405.046 0 394 0H20Z" fill="#969AF7"/>
<path d="M20 0C8.9543 0 0 8.95429 0 20V86.5556L26.9424 130.805C28.3785 133.163 28.3785 136.987 26.9424 139.346L0 183.595V248.372C0 259.418 8.95432 268.372 20 268.372H394C405.046 268.372 414 259.418 414 248.372V20C414 8.9543 405.046 0 394 0H20Z" fill="url(#paint0_linear_9443_5)"/>
<path d="M391.349 66.1997C392.887 63.9064 395.381 63.9064 396.919 66.1997L440.393 131.018C441.931 133.312 441.931 137.03 440.393 139.323L396.919 204.142C395.381 206.435 392.887 206.435 391.349 204.142L347.874 139.323C346.336 137.03 346.336 133.312 347.874 131.018L391.349 66.1997Z" fill="#969AF7"/>
<path d="M391.349 66.1997C392.887 63.9064 395.381 63.9064 396.919 66.1997L440.393 131.018C441.931 133.312 441.931 137.03 440.393 139.323L396.919 204.142C395.381 206.435 392.887 206.435 391.349 204.142L347.874 139.323C346.336 137.03 346.336 133.312 347.874 131.018L391.349 66.1997Z" fill="url(#paint1_linear_9443_5)"/>
<mask id="mask0_9443_5" style="mask-type:alpha" maskUnits="userSpaceOnUse" x="3" y="0" width="440" height="269">
<path d="M23 0C11.9543 0 3 8.95429 3 20V248.372C3 259.418 11.9543 268.372 23 268.372H396C407.046 268.372 416 259.418 416 248.372V177.073L441.319 139.323C442.858 137.03 442.858 133.312 441.319 131.018L416 93.2681V20C416 8.9543 407.046 0 396 0H23Z" fill="#969AF7"/>
<path d="M23 0C11.9543 0 3 8.95429 3 20V248.372C3 259.418 11.9543 268.372 23 268.372H396C407.046 268.372 416 259.418 416 248.372V177.073L441.319 139.323C442.858 137.03 442.858 133.312 441.319 131.018L416 93.2681V20C416 8.9543 407.046 0 396 0H23Z" fill="url(#paint2_linear_9443_5)"/>
<path d="M23 0C11.9543 0 3 8.95429 3 20V248.372C3 259.418 11.9543 268.372 23 268.372H396C407.046 268.372 416 259.418 416 248.372V177.073L441.319 139.323C442.858 137.03 442.858 133.312 441.319 131.018L416 93.2681V20C416 8.9543 407.046 0 396 0H23Z" fill="url(#paint3_linear_9443_5)"/>
</mask>
<g mask="url(#mask0_9443_5)">
<rect opacity="0.06" x="364.2" y="110" width="441.517" height="441.517" rx="30" transform="rotate(45 364.2 110)" fill="white"/>
</g>
<defs>
<linearGradient id="paint0_linear_9443_5" x1="-53.7194" y1="-21.0171" x2="441.896" y2="53.5312" gradientUnits="userSpaceOnUse">
<stop offset="0.0851517" stop-color="#041080"/>
<stop offset="1" stop-color="#0926C0"/>
</linearGradient>
<linearGradient id="paint1_linear_9443_5" x1="-53.7194" y1="-21.0171" x2="441.896" y2="53.5312" gradientUnits="userSpaceOnUse">
<stop offset="0.0851517" stop-color="#041080"/>
<stop offset="1" stop-color="#0926C0"/>
</linearGradient>
<linearGradient id="paint2_linear_9443_5" x1="222.736" y1="0" x2="222.736" y2="268.372" gradientUnits="userSpaceOnUse">
<stop stop-color="#969AF7"/>
<stop offset="1" stop-color="#686EEC"/>
</linearGradient>
<linearGradient id="paint3_linear_9443_5" x1="-50.467" y1="-21.0171" x2="442.923" y2="52.8479" gradientUnits="userSpaceOnUse">
<stop offset="0.0851517" stop-color="#041080"/>
<stop offset="1" stop-color="#0926C0"/>
</linearGradient>
</defs>
</svg>
